HIERARCHY
ROOT root
{
	OFFSET	0	13.1	24.9
	CHANNELS 6  Xposition Yposition Zposition Xrotation Yrotation Zrotation
	JOINT spine_1
	{
		OFFSET	0	9.99999	0
		CHANNELS 3  Xrotation Yrotation Zrotation
		JOINT spine_2
		{
			OFFSET	0	112	-10
			CHANNELS 3  Xrotation Yrotation Zrotation
			JOINT spine_3
			{
				OFFSET	0	206.5	19.3
				CHANNELS 3  Xrotation Yrotation Zrotation
				JOINT spine_4
				{
					OFFSET	0	110.4	14.6
					CHANNELS 3  Xrotation Yrotation Zrotation
					JOINT neck_1
					{
						OFFSET	0	71.8	-50.3
						CHANNELS 3  Xrotation Yrotation Zrotation
						JOINT neck_2
						{
							OFFSET	0	86.2	-25.8
							CHANNELS 3  Xrotation Yrotation Zrotation
							JOINT head_ee
							{
								OFFSET	0	179.8	-8.7
								CHANNELS 3  Xrotation Yrotation Zrotation
								End Site
								{
									OFFSET	1	0	0
								}
							}
						}
					}
					JOINT left_clavicle
					{
						OFFSET	-43.2	22.4	-70.8
						CHANNELS 3  Xrotation Yrotation Zrotation
						JOINT left_shoulder
						{
							OFFSET	-93.9	-5.79999	48.7
							CHANNELS 3  Xrotation Yrotation Zrotation
							JOINT left_elbow
							{
								OFFSET	-291.4	-30.8	15.2
								CHANNELS 3  Xrotation Yrotation Zrotation
								JOINT left_lowarm_twist
								{
									OFFSET	-110.7	-3.89999	13.6
									CHANNELS 3  Xrotation Yrotation Zrotation
									JOINT left_hand
									{
										OFFSET	-110.7	-3.89999	13.6
										CHANNELS 3  Xrotation Yrotation Zrotation
										JOINT left_ee
										{
											OFFSET	-80.8	-5.10001	12.1
											CHANNELS 3  Xrotation Yrotation Zrotation
											End Site
											{
												OFFSET	1	0	0
											}
										}
									}
								}
							}
						}
					}
					JOINT right_clavicle
					{
						OFFSET	43.2	22.4	-70.8
						CHANNELS 3  Xrotation Yrotation Zrotation
						JOINT right_shoulder
						{
							OFFSET	93.9	-5.79999	48.7
							CHANNELS 3  Xrotation Yrotation Zrotation
							JOINT right_elbow
							{
								OFFSET	291.4	-30.8	15.2
								CHANNELS 3  Xrotation Yrotation Zrotation
								JOINT right_lowarm_twist
								{
									OFFSET	110.7	-3.89999	13.6
									CHANNELS 3  Xrotation Yrotation Zrotation
									JOINT right_hand
									{
										OFFSET	110.7	-3.89999	13.6
										CHANNELS 3  Xrotation Yrotation Zrotation
										JOINT right_ee
										{
											OFFSET	80.8	-5.10001	12.1
											CHANNELS 3  Xrotation Yrotation Zrotation
											End Site
											{
												OFFSET	1	0	0
											}
										}
									}
								}
							}
						}
					}
				}
			}
		}
	}
	JOINT left_hip
	{
		OFFSET	-82.8	-127.5	0.300001
		CHANNELS 3  Xrotation Yrotation Zrotation
		JOINT left_knee
		{
			OFFSET	-28.2	-396.7	2.2
			CHANNELS 3  Xrotation Yrotation Zrotation
			JOINT left_ankle
			{
				OFFSET	-11.7	-411.3	35.4
				CHANNELS 3  Xrotation Yrotation Zrotation
				JOINT left_toes
				{
					OFFSET	0	-60	-88.6
					CHANNELS 3  Xrotation Yrotation Zrotation
					JOINT left_foot_ee
					{
						OFFSET	-22.5	-16.5	-42.2
						CHANNELS 3  Xrotation Yrotation Zrotation
						End Site
						{
							OFFSET	1	0	0
						}
					}
				}
			}
		}
	}
	JOINT right_hip
	{
		OFFSET	82.8	-127.5	0.300001
		CHANNELS 3  Xrotation Yrotation Zrotation
		JOINT right_knee
		{
			OFFSET	28.2	-396.7	2.2
			CHANNELS 3  Xrotation Yrotation Zrotation
			JOINT right_ankle
			{
				OFFSET	11.7	-411.3	35.4
				CHANNELS 3  Xrotation Yrotation Zrotation
				JOINT right_toes
				{
					OFFSET	0	-60	-88.6
					CHANNELS 3  Xrotation Yrotation Zrotation
					JOINT right_foot_ee
					{
						OFFSET	22.5	-16.5	-42.2
						CHANNELS 3  Xrotation Yrotation Zrotation
						End Site
						{
							OFFSET	1	0	0
						}
					}
				}
			}
		}
	}
}
MOTION
Frames: 12
Frame Time: 0.02
3039.94 755.715 -580.681 155.79 -71.1857 156.742 -2.97682 0.0482265 0.461315 -2.9767 0.0187744 0.463449 -2.9764 -0.102678 0.452321 -2.97669 -0.0299545 0.462861 0.946099 6.34461 -2.03871 1.11392 12.9202 -1.63399 -0.0 0.0 -0.0 1.37676 7.56551 3.34521 -21.575 -26.4701 69.7463 0.682224 -18.6729 0.112166 26.4553 0.162243 -3.34567 -1.34879 22.6979 1.25011 -0.0 0.0 -0.0 4.26095 4.61159 -7.98691 1.2715 30.4445 -60.5402 3.45845 59.7135 -1.98563 2.08037 -0.0686397 0.256831 0.867105 -11.397 -10.269 0.0 0.0 0.0 3.9672 19.2731 -9.23051 -10.499 0.287891 1.58329 -4.27681 6.82483 0.631956 17.5273 -0.0 -0.0 -0.0 0.0 -0.0 1.02749 35.6664 -8.76155 -5.19892 -0.178872 -0.777557 14.2155 -12.0767 1.99549 -27.9393 0.0 0.0 0.0 0.0 0.0 
3046.59 756.931 -587.374 154.752 -71.5713 156.169 -2.89676 -0.0373262 0.242898 -2.89673 -0.0527067 0.240031 -2.89693 -0.113149 0.218152 -2.89698 -0.0772758 0.233283 0.829137 6.1913 -2.18508 0.9947 12.776 -1.79541 -0.0 0.0 -0.0 1.36302 7.84782 3.34568 -21.5493 -26.4444 69.6654 0.717535 -19.5676 0.123732 26.0145 0.172246 -3.29025 -1.34466 22.6124 1.23574 -0.0 0.0 -0.0 4.1348 4.377 -7.74668 0.398106 29.7822 -60.177 3.44737 59.6335 -1.97606 2.23943 -0.0735028 0.276566 0.779522 -10.305 -9.29048 0.0 0.0 0.0 3.63098 19.9441 -8.95177 -9.67696 0.275874 1.45772 -5.01758 5.94167 0.742903 17.1207 -0.0 -0.0 -0.0 0.0 -0.0 0.571904 35.2742 -8.60295 -4.82833 -0.168466 -0.721635 14.4109 -12.0535 2.02133 -26.825 0.0 0.0 0.0 0.0 0.0 
3060.95 761.177 -592.949 156.395 -71.7272 158.153 -2.45723 -0.016773 0.107395 -2.45722 -0.0235729 0.10611 -2.45726 -0.0495419 0.0967504 -2.45727 -0.0336402 0.10336 2.48444 6.28708 -2.64733 2.70417 13.2413 -2.47441 -0.0 0.0 -0.0 1.5774 8.56356 3.78494 -21.3813 -26.4311 69.5765 0.69656 -19.0373 0.116799 25.6443 0.180316 -3.24366 -1.46259 22.1259 0.333346 -0.0 0.0 -0.0 3.83519 4.14805 -7.15946 -1.82966 29.0486 -59.4115 3.31202 58.624 -1.85988 2.6283 -0.0851614 0.32487 0.708553 -9.59052 -8.55664 0.0 0.0 0.0 2.55803 20.9414 -8.85369 -11.8596 0.303816 1.79145 -2.93621 5.55619 0.433084 17.7403 -0.0 -0.0 -0.0 0.0 -0.0 -0.451462 35.028 -7.56571 -4.52128 -0.159571 -0.675352 14.5833 -12.2275 2.04465 -25.5048 0.0 0.0 0.0 0.0 0.0 
3074.85 760.606 -598.754 156.94 -71.9844 158.638 -2.15158 0.000396693 0.00085366 -2.15158 0.000341569 0.000877173 -2.15158 0.000114581 0.00093433 -2.15158 0.000260703 0.000904508 3.77901 6.42017 -2.8831 4.04255 13.5999 -2.87391 -0.0 0.0 -0.0 1.66234 8.98095 3.96771 -21.2088 -26.49 69.243 0.669293 -18.3429 0.108061 25.3837 0.185817 -3.21082 -1.54375 21.7738 -0.299805 -0.0 0.0 -0.0 3.70636 4.33604 -6.88952 -3.79703 28.6565 -59.3197 3.16056 57.4206 -1.7314 2.36308 -0.0772455 0.291917 0.646272 -9.11814 -7.9693 0.0 0.0 0.0 1.85118 21.7942 -8.76207 -13.3222 0.315417 2.01554 -1.61105 5.16688 0.237032 17.6502 -0.0 -0.0 -0.0 0.0 -0.0 -1.75608 34.0675 -6.5315 -5.68739 -0.192034 -0.851365 14.7187 -12.3399 2.06288 -24.3914 0.0 0.0 0.0 0.0 0.0 
3086.12 761.585 -599.576 155.113 -71.3101 156.721 -2.17319 -0.00130834 0.00847204 -2.17319 -0.00184479 0.00837161 -2.17319 -0.0038562 0.00765617 -2.17319 -0.00259865 0.0081691 4.65014 6.53567 -3.01165 4.94502 13.857 -3.1125 -0.0 0.0 -0.0 1.72714 9.26257 4.10307 -21.0581 -26.5402 69.0125 0.650442 -17.8596 0.102204 25.2142 0.189316 -3.18944 -1.60066 21.5346 -0.742328 -0.0 0.0 -0.0 3.57498 4.30903 -6.62801 -5.71578 28.2983 -59.4802 3.03361 56.3469 -1.62507 2.1718 -0.071442 0.268173 0.602519 -8.79234 -7.55791 0.0 0.0 0.0 1.34658 22.448 -8.47143 -14.3368 0.320103 2.17114 -0.706871 4.89024 0.103815 17.5716 -0.0 -0.0 -0.0 0.0 -0.0 -2.40458 33.404 -5.90835 -6.46536 -0.211695 -0.969135 14.8169 -12.3743 2.07595 -23.615 0.0 0.0 0.0 0.0 0.0 
3095.19 762.185 -602.023 156.334 -71.0225 157.909 -2.1305 -0.0389791 -0.0529027 -2.1305 -0.0355338 -0.0552758 -2.13046 -0.0208198 -0.0623266 -2.13047 -0.0304019 -0.0582563 5.19816 6.65582 -3.01414 5.51155 14.0299 -3.17224 -0.0 0.0 -0.0 1.80917 9.28634 4.24774 -20.5024 -26.6472 68.706 0.645516 -17.7328 0.100698 25.102 0.191596 -3.17529 -1.63925 21.3505 -1.05357 -0.0 0.0 -0.0 3.57953 4.25775 -6.6405 -7.00298 28.1191 -59.9613 2.94889 55.5949 -1.55485 2.03789 -0.0673317 0.251563 0.57277 -8.5524 -7.27046 0.0 0.0 0.0 0.708885 22.9938 -8.20226 -14.6933 0.321095 2.22584 0.0448629 4.69042 -0.00657852 17.5318 -0.0 -0.0 -0.0 0.0 -0.0 -2.84071 32.9375 -5.48604 -7.04623 -0.225332 -1.05723 14.9189 -12.3714 2.0894 -23.0566 0.0 0.0 0.0 0.0 0.0 
3101.01 763.714 -602.874 158.705 -71.2141 160.265 -2.02467 -0.125461 -0.0117864 -2.02468 -0.124456 -0.0197459 -2.02464 -0.115847 -0.0495863 -2.02462 -0.122224 -0.0306681 5.34407 6.81615 -2.744 5.65303 14.0586 -2.86994 -0.0 0.0 -0.0 1.63658 9.00188 3.92437 -19.7433 -26.6662 67.3215 0.667321 -18.2925 0.107441 24.9614 0.194414 -3.15756 -1.66981 20.936 -1.4264 -0.0 0.0 -0.0 3.48212 4.22775 -6.44748 -7.9418 27.904 -60.0361 2.8888 55.0435 -1.50544 1.98136 -0.065585 0.244554 0.544665 -8.46885 -7.05464 0.0 0.0 0.0 0.268497 23.9787 -8.07819 -13.7228 0.317597 2.07698 0.585269 4.49682 -0.0857267 17.341 -0.0 -0.0 -0.0 0.0 -0.0 -2.98697 32.5235 -5.60878 -7.93109 -0.244384 -1.19168 15.2533 -12.327 2.13331 -22.5975 0.0 0.0 0.0 0.0 0.0 
3106.72 757.0 -602.183 159.763 -71.3052 161.326 -1.9534 -0.109408 0.111598 -1.9534 -0.116288 0.10441 -1.95362 -0.138203 0.0729676 -1.95361 -0.124944 0.0938784 4.71907 7.41697 -1.53873 4.98252 14.0913 -1.39175 -0.0 0.0 -0.0 1.60732 8.78806 3.85584 -18.9968 -26.7594 66.3062 0.71939 -19.6143 0.124354 24.394 0.205347 -3.0859 -1.69931 20.6391 -1.73938 -0.0 0.0 -0.0 3.54057 4.12494 -6.57126 -7.17387 27.6404 -61.2923 2.59529 52.1145 -1.26918 1.94177 -0.0643574 0.239646 0.503787 -8.70876 -6.88277 0.0 0.0 0.0 -0.114909 24.6675 -8.00526 -11.6445 0.301627 1.75851 0.972651 4.40248 -0.142346 16.6912 -0.0 -0.0 -0.0 0.0 -0.0 -1.96387 32.1893 -6.31926 -8.25722 -0.250883 -1.24131 16.3653 -11.6159 2.27643 -22.277 0.0 0.0 0.0 0.0 0.0 
3103.52 763.023 -599.77 160.752 -71.6218 162.854 -1.86885 -0.12363 0.0961577 -1.86886 -0.129499 0.0880959 -1.86907 -0.146966 0.0541458 -1.86905 -0.13657 0.0766768 4.45016 7.8723 -0.658328 4.69095 14.1394 -0.338153 -0.0 0.0 -0.0 1.45732 8.34291 3.55519 -17.0976 -26.8617 64.8018 0.788457 -21.3345 0.148516 24.0024 0.212477 -3.03639 -1.70531 20.3999 -1.88728 -0.0 0.0 -0.0 3.69524 4.03176 -6.88666 -8.06178 27.3342 -62.6062 2.40896 50.0297 -1.1242 1.87736 -0.0623533 0.231662 0.475827 -8.90125 -6.77669 0.0 0.0 0.0 -0.375029 25.1961 -7.96607 -8.67086 0.258718 1.3043 1.36484 4.26994 -0.199575 16.236 -0.0 -0.0 -0.0 0.0 -0.0 -1.29212 32.0351 -6.68373 -8.07701 -0.247327 -1.21388 17.7736 -10.8368 2.45563 -21.8197 0.0 0.0 0.0 0.0 0.0 
3102.32 759.274 -600.397 161.415 -71.6164 163.588 -1.79855 -0.0254928 0.114971 -1.79854 -0.032757 0.113116 -1.79861 -0.059027 0.101902 -1.79862 -0.0421928 0.109945 4.26131 8.26226 0.119216 4.48626 14.1616 0.583419 -0.0 0.0 -0.0 1.32157 8.03311 3.28871 -15.7646 -26.959 63.7421 0.838361 -22.5529 0.167165 23.707 0.217632 -2.99901 -1.71312 20.2254 -2.01566 -0.0 0.0 -0.0 3.70273 4.0417 -6.901 -8.22321 26.902 -62.8774 2.2224 47.7436 -0.983624 1.84036 -0.0611979 0.227078 0.436342 -9.09883 -6.59817 0.0 0.0 0.0 -0.347399 25.5367 -7.96185 -6.53936 0.213483 0.980351 1.64207 3.95967 -0.240037 15.8129 -0.0 -0.0 -0.0 0.0 -0.0 -1.00565 31.6741 -6.8718 -7.99989 -0.245779 -1.20215 18.6745 -10.5622 2.56937 -21.4896 0.0 0.0 0.0 0.0 0.0 
3105.39 763.877 -601.016 159.658 -71.3316 161.946 -1.89513 0.0376912 0.116785 -1.89512 0.0301835 0.118946 -1.89505 0.000451794 0.122716 -1.89507 0.0198267 0.121104 4.07816 8.54904 0.719267 4.2922 14.1622 1.29474 -0.0 0.0 -0.0 1.4659 7.82094 3.52566 -14.4972 -27.0688 62.933 0.885747 -23.6903 0.185774 23.4868 0.221349 -2.97113 -1.7189 20.0551 -2.13023 -0.0 0.0 -0.0 3.66475 4.02551 -6.82608 -8.90122 26.5262 -62.9602 2.08258 45.887 -0.88166 1.81898 -0.060529 0.224429 0.412681 -9.25113 -6.5048 0.0 0.0 0.0 -0.364903 25.8955 -7.71201 -5.04942 0.174718 0.75499 1.87331 3.73662 -0.273756 15.5242 -0.0 -0.0 -0.0 0.0 -0.0 -0.723846 31.4112 -6.96196 -7.94078 -0.244581 -1.19316 19.3224 -10.4288 2.6506 -21.2441 0.0 0.0 0.0 0.0 0.0 
3109.2 758.175 -606.558 160.149 -71.3318 162.509 -1.92483 0.0606635 0.112922 -1.92482 0.0533551 0.116553 -1.92471 0.0234474 0.126022 -1.92473 0.0430559 0.120737 3.89587 8.75789 1.16672 4.10249 14.1623 1.82696 -0.0 0.0 -0.0 1.56885 7.60219 3.68985 -13.3472 -27.2101 62.2762 0.928708 -24.7047 0.203384 23.3267 0.223985 -2.95084 -1.72267 19.8845 -2.23311 -0.0 0.0 -0.0 3.60601 4.01087 -6.70958 -9.61343 26.2198 -62.9819 1.98143 44.4614 -0.809914 1.80403 -0.0600608 0.222577 0.395031 -9.37815 -6.44056 0.0 0.0 0.0 -0.529568 26.2175 -7.4353 -4.13271 0.147958 0.616851 2.03924 3.58203 -0.297939 15.3247 -0.0 -0.0 -0.0 0.0 -0.0 -0.589733 31.2266 -6.82169 -7.9082 -0.243917 -1.1882 19.7529 -10.3631 2.70427 -21.0723 0.0 0.0 0.0 0.0 0.0 
